<svg width="556" height="174" viewBox="0 0 556 174" fill="none" xmlns="http://www.w3.org/2000/svg">
<path d="M556 135.71C555.777 136.751 555.294 137.606 554.55 138.275C553.881 138.87 553.064 139.353 552.097 139.725C551.131 140.097 550.127 140.357 549.086 140.505C548.12 140.58 547.228 140.617 546.41 140.617C546.038 140.617 545.667 140.617 545.295 140.617C544.997 140.543 544.663 140.505 544.291 140.505C543.92 140.505 543.734 140.691 543.734 141.063C543.734 141.435 543.548 141.695 543.176 141.844C542.804 141.695 542.433 141.583 542.061 141.509C541.689 141.435 541.318 141.398 540.946 141.398C540.425 141.398 539.905 141.435 539.385 141.509C538.939 141.583 538.493 141.621 538.047 141.621C537.452 141.621 537.006 141.546 536.708 141.398C536.485 141.249 536.262 141.1 536.039 140.951C535.891 140.728 535.705 140.505 535.482 140.282C535.333 140.059 535.073 139.874 534.701 139.725C534.181 139.502 533.735 139.465 533.363 139.613C533.066 139.762 532.582 139.539 531.913 138.944C531.021 138.201 530.241 137.309 529.572 136.268C528.977 135.153 528.382 134.001 527.787 132.811C527.193 131.622 526.561 130.432 525.892 129.243C525.223 128.053 524.442 127.012 523.55 126.12H522.658C521.32 126.12 520.39 126.678 519.87 127.793C519.498 127.57 519.127 127.31 518.755 127.012C518.383 126.641 517.974 126.343 517.528 126.12C515.818 126.641 514.034 127.087 512.176 127.458C510.317 127.83 508.459 128.016 506.6 128.016H505.039C504.593 128.016 504.11 127.942 503.589 127.793C502.846 128.09 502.177 128.462 501.582 128.908C500.987 129.28 500.318 129.466 499.575 129.466C499.129 129.466 498.608 129.317 498.014 129.02C497.568 129.02 497.345 129.206 497.345 129.577C497.419 129.949 497.196 130.135 496.675 130.135H495.672C494.631 130.135 493.59 130.172 492.55 130.246C491.583 130.321 490.579 130.358 489.539 130.358C488.126 130.358 486.677 130.172 485.19 129.8C484.818 130.023 484.409 130.135 483.963 130.135C483.666 130.283 483.443 130.544 483.294 130.915C483.145 131.213 482.997 131.51 482.848 131.807C482.699 132.03 482.476 132.254 482.179 132.477C481.956 132.625 481.621 132.662 481.175 132.588C481.027 133.48 480.655 134.186 480.06 134.707C479.465 135.227 479.168 136.008 479.168 137.049C478.35 137.495 477.681 138.052 477.161 138.721C476.64 139.39 476.12 140.097 475.6 140.84C475.079 141.583 474.522 142.29 473.927 142.959C473.407 143.628 472.738 144.148 471.92 144.52C471.548 144.966 471.437 145.672 471.585 146.639C470.767 147.308 469.764 147.902 468.574 148.423C467.385 148.943 466.27 149.203 465.229 149.203C463.073 149.203 461.586 148.051 460.769 145.747C460.769 145.003 460.843 144.223 460.992 143.405C461.066 142.513 461.215 141.695 461.438 140.951C461.661 140.134 461.995 139.427 462.441 138.833C462.887 138.164 463.519 137.68 464.337 137.383C464.337 136.714 464.114 136.268 463.668 136.045C463.222 135.748 463.036 135.264 463.11 134.595C465.118 133.629 466.865 132.365 468.351 130.804C469.838 129.243 471.176 127.607 472.366 125.897C473.63 124.113 474.893 122.329 476.157 120.545C477.421 118.761 478.834 117.162 480.395 115.75V113.408C482.625 111.029 484.075 108.353 484.744 105.379C485.561 105.23 486.082 104.859 486.305 104.264C486.602 103.669 486.751 102.963 486.751 102.145C487.123 102.145 487.346 101.997 487.42 101.699C487.569 101.327 487.903 101.216 488.424 101.365C489.093 99.5804 489.836 97.9449 490.654 96.4581C491.472 94.9713 492.289 93.4844 493.107 91.9976C493.925 90.4364 494.631 88.8381 495.226 87.2026C495.895 85.5671 496.378 83.7457 496.675 81.7385C497.716 81.6641 498.274 81.1809 498.348 80.2888C498.497 79.3224 498.646 78.4674 498.794 77.724C499.909 76.6833 500.727 75.4566 501.248 74.0441C501.842 72.6316 502.363 71.182 502.809 69.6952C503.255 68.134 503.738 66.61 504.258 65.1232C504.853 63.562 505.671 62.1867 506.712 60.9972V60.6627C506.712 60.291 506.563 60.0679 506.266 59.9936C505.968 59.8449 505.82 59.5847 505.82 59.213C505.894 59.1387 505.931 59.0643 505.931 58.99C506.823 58.6183 507.492 58.0235 507.938 57.2058C508.384 56.3137 509.053 55.6818 509.945 55.3101C511.507 56.5739 512.882 57.3545 514.071 57.6518C515.261 57.8749 516.822 58.0607 518.755 58.2094C519.721 59.2502 520.242 60.514 520.316 62.0008C520.465 63.4133 520.725 64.8258 521.097 66.2383C521.691 68.6172 522.323 70.959 522.992 73.2635C523.736 75.4938 524.293 77.7984 524.665 80.1773C524.888 81.5898 525.297 82.9279 525.892 84.1917C526.486 85.4555 526.895 86.7565 527.118 88.0947C527.267 89.1355 527.267 90.3249 527.118 91.6631C526.97 92.9269 527.118 94.042 527.564 95.0084L528.345 96.7926C528.717 97.6104 529.014 98.4653 529.237 99.3574C529.534 100.25 529.795 101.142 530.018 102.034C530.612 104.264 531.133 106.68 531.579 109.282C532.099 111.81 532.88 114.114 533.921 116.196C534.292 116.939 534.85 117.46 535.593 117.757C536.411 118.054 537.303 118.277 538.27 118.426C539.236 118.5 540.165 118.538 541.057 118.538C542.024 118.463 542.842 118.426 543.511 118.426H544.626C545.072 118.426 545.518 118.5 545.964 118.649C546.261 119.244 546.41 119.764 546.41 120.21C546.41 121.102 546.113 121.809 545.518 122.329C544.923 122.849 544.626 123.444 544.626 124.113C544.626 124.485 544.774 124.894 545.072 125.34C544.774 125.265 544.328 125.228 543.734 125.228C542.024 125.228 540.351 125.526 538.716 126.12C539.31 127.384 540.091 128.462 541.057 129.354C542.098 130.172 543.176 130.953 544.291 131.696C545.035 131.101 545.815 130.804 546.633 130.804C547.525 130.804 548.343 131.027 549.086 131.473C549.904 131.845 550.759 132.03 551.651 132.03C552.32 132.03 552.803 131.919 553.101 131.696C553.695 132.365 554.179 133.071 554.55 133.815C554.922 134.484 555.405 135.116 556 135.71ZM521.097 117.868C520.948 116.605 520.688 115.713 520.316 115.192C520.019 114.597 519.759 113.891 519.536 113.073C519.238 112.033 519.015 110.918 518.866 109.728C518.792 108.539 518.643 107.386 518.42 106.271C517.9 103.744 517.305 101.216 516.636 98.6883C516.041 96.1607 515.261 93.7075 514.294 91.3285C514.592 90.8825 514.74 90.4736 514.74 90.1019V89.7674C514.071 89.0239 513.588 88.1318 513.291 87.0911C512.993 85.9759 512.696 84.898 512.399 83.8572C512.176 82.7421 511.841 81.7385 511.395 80.8464C511.023 79.8799 510.392 79.0994 509.499 78.5046C509.276 78.9507 509.165 79.4711 509.165 80.0658C509.165 80.5862 509.202 81.0694 509.276 81.5155C509.425 81.9615 509.499 82.4447 509.499 82.9651C508.756 83.3368 508.198 83.9315 507.827 84.7493C507.529 85.4927 507.009 86.0875 506.266 86.5335C505.671 88.9124 504.816 91.1798 503.701 93.3357C502.586 95.4173 501.396 97.4989 500.132 99.5804C498.943 101.662 497.791 103.781 496.675 105.937C495.56 108.018 494.668 110.211 493.999 112.516C493.033 113.185 492.364 114.04 491.992 115.081C491.695 116.121 491.546 117.162 491.546 118.203C492.215 118.575 492.958 118.798 493.776 118.872C494.668 118.872 495.523 118.872 496.341 118.872C497.159 118.872 497.939 118.946 498.683 119.095C499.426 119.244 500.095 119.615 500.69 120.21C501.656 119.913 502.697 119.727 503.812 119.653C505.002 119.504 505.968 119.169 506.712 118.649C508.198 119.169 509.797 119.43 511.507 119.43C512.399 119.43 513.254 119.355 514.071 119.207C514.964 119.058 515.818 118.872 516.636 118.649C517.305 118.798 517.826 119.058 518.197 119.43C518.569 119.727 519.127 119.838 519.87 119.764C520.242 119.467 520.465 119.169 520.539 118.872C520.613 118.5 520.799 118.166 521.097 117.868ZM528.233 36.4645C528.159 37.5796 527.862 38.4346 527.341 39.0293C526.895 39.624 526.672 40.3674 526.672 41.2595C526.672 41.8543 526.784 42.3747 527.007 42.8207C526.486 43.0437 526.226 43.4526 526.226 44.0473H525.78C525.185 44.0473 524.591 44.196 523.996 44.4934C523.476 44.7908 522.918 44.9394 522.323 44.9394C520.39 44.9394 518.755 44.4562 517.417 43.4898C516.079 42.449 514.629 41.5941 513.068 40.925C512.696 40.7763 512.324 40.702 511.953 40.702H510.949C510.429 40.702 510.057 40.6276 509.834 40.4789C509.76 40.3303 509.685 40.1444 509.611 39.9214C509.611 39.624 509.537 39.401 509.388 39.2523C509.314 39.178 508.979 39.0665 508.384 38.9178C507.79 38.6947 507.12 38.4717 506.377 38.2487C505.708 38.0257 505.039 37.8027 504.37 37.5796C503.701 37.2823 503.255 37.0592 503.032 36.9106C502.66 36.6875 502.325 36.3158 502.028 35.7954C501.805 35.2007 501.433 35.052 500.913 35.3494C500.987 35.1264 501.024 34.9033 501.024 34.6803C501.024 34.3086 500.913 33.9369 500.69 33.5652C500.541 33.1191 500.244 32.8961 499.798 32.8961C499.649 32.8961 499.463 32.9333 499.24 33.0076C499.092 33.082 498.906 33.1191 498.683 33.1191C498.534 33.1191 498.385 33.0448 498.237 32.8961C497.642 32.1527 497.01 31.4093 496.341 30.6659C495.151 29.4021 493.925 28.2869 492.661 27.3205C491.397 26.3541 490.431 25.0159 489.762 23.3061C488.424 22.637 487.271 21.8192 486.305 20.8528L483.406 17.9535C482.439 16.987 481.398 16.1321 480.283 15.3887C479.168 14.5709 477.793 14.0134 476.157 13.716V12.9354C476.157 11.969 476.306 11.0397 476.603 10.1476C476.901 9.25552 477.049 8.36342 477.049 7.47132C477.049 7.02527 477.012 6.69073 476.938 6.46771C477.979 6.096 478.648 5.4641 478.945 4.572C479.242 3.60556 479.391 2.63912 479.391 1.67268C480.135 0.854927 481.101 0.371707 482.29 0.223024C483.48 0.0743415 484.558 0 485.524 0H486.639C487.011 0 487.383 0.0371707 487.755 0.111512C489.539 1.15229 490.951 2.45327 491.992 4.01444C493.107 5.57561 493.962 7.32264 494.557 9.25552C495.598 10.0733 496.49 11.0397 497.233 12.1548C498.051 13.27 499.166 14.0505 500.578 14.4966C501.173 15.9834 501.954 17.3216 502.92 18.511C503.887 19.6262 504.927 20.7041 506.043 21.7449C507.158 22.7857 508.236 23.8636 509.276 24.9787C510.392 26.0195 511.395 27.1718 512.287 28.4356C513.551 28.956 514.926 29.4764 516.413 29.9968C517.9 30.4428 519.35 30.9632 520.762 31.558C522.249 32.1527 523.624 32.8589 524.888 33.6767C526.226 34.4201 527.341 35.3494 528.233 36.4645Z" fill="#FF55D5"/>
<path d="M484.075 118.314C484.075 119.801 483.814 121.028 483.294 121.994C482.848 122.886 482.328 123.927 481.733 125.117C481.584 125.042 481.398 125.005 481.175 125.005C480.729 125.005 480.32 125.117 479.949 125.34C479.577 125.563 479.205 125.749 478.833 125.897C476.678 128.276 474.447 130.581 472.143 132.811C469.913 135.041 467.422 137.011 464.671 138.721C463.928 139.167 463.185 139.613 462.441 140.059C461.698 140.431 460.917 140.803 460.099 141.174C459.802 141.323 459.505 141.472 459.207 141.621C458.984 141.695 458.761 141.806 458.538 141.955C458.018 142.252 457.46 142.736 456.866 143.405C456.345 144.074 455.713 144.743 454.97 145.412C454.301 146.155 453.557 146.75 452.74 147.196C451.922 147.717 451.03 147.94 450.063 147.865C449.469 148.237 448.948 148.72 448.502 149.315C448.056 149.91 447.536 150.504 446.941 151.099C443.744 152.214 440.808 153.664 438.132 155.448C435.53 157.307 432.816 159.091 429.991 160.801C428.281 161.916 426.571 162.808 424.862 163.477C424.49 163.626 424.044 163.737 423.523 163.811C423.077 163.886 422.594 163.997 422.074 164.146C419.62 164.741 417.13 165.224 414.602 165.596C412.149 165.967 409.659 166.153 407.131 166.153C404.009 166.153 400.998 165.782 398.099 165.038C398.099 164.815 398.024 164.666 397.876 164.592C397.727 164.518 397.541 164.443 397.318 164.369C397.169 164.295 397.021 164.183 396.872 164.034C396.723 163.96 396.723 163.774 396.872 163.477C395.236 163.328 393.787 162.919 392.523 162.25C391.334 161.581 390.553 160.392 390.181 158.682C389.958 158.831 389.772 159.016 389.624 159.239C389.475 159.462 389.215 159.537 388.843 159.462C387.802 157.976 386.65 156.6 385.386 155.337C384.122 154.073 383.193 152.549 382.598 150.765C382.45 150.393 382.338 150.021 382.264 149.649C382.264 149.352 382.227 149.017 382.152 148.646C381.781 147.605 381.112 147.085 380.145 147.085C380.294 146.787 380.368 146.416 380.368 145.969C380.368 145.746 380.331 145.523 380.257 145.3C380.257 145.077 380.257 144.854 380.257 144.631C380.257 144.26 380.368 143.888 380.591 143.516C379.848 141.806 379.327 140.134 379.03 138.498C378.733 136.788 378.584 135.041 378.584 133.257C378.584 130.953 378.695 128.685 378.919 126.455C379.142 124.15 379.253 121.846 379.253 119.541C379.699 118.649 380.034 117.608 380.257 116.419C380.554 115.229 381.037 114.263 381.706 113.519C381.632 113.073 381.483 112.85 381.26 112.85C381.037 112.776 380.926 112.553 380.926 112.181C380.926 110.843 381.186 109.393 381.706 107.832C382.227 106.271 382.487 104.673 382.487 103.037C383.156 102.666 383.565 102.108 383.714 101.365C383.937 100.621 384.345 100.026 384.94 99.5804V99.0228C384.94 97.9077 385.052 96.7926 385.275 95.6775C385.572 94.5623 385.832 93.4844 386.055 92.4436C386.353 91.3285 386.576 90.2505 386.724 89.2098C386.947 88.0946 387.022 87.0167 386.947 85.9759C387.096 85.7529 387.282 85.344 387.505 84.7493C387.802 84.0802 388.063 83.4111 388.286 82.742C388.583 81.9986 388.806 81.2924 388.955 80.6233C389.178 79.9542 389.289 79.471 389.289 79.1737C389.289 78.7276 389.215 78.3187 389.066 77.947C388.917 77.5753 388.843 77.1664 388.843 76.7204C388.843 76.3487 388.955 75.8283 389.178 75.1592C389.401 74.4158 389.587 73.8211 389.735 73.375C390.033 72.1112 390.293 70.8102 390.516 69.4721C390.813 68.0596 391.073 66.7215 391.296 65.4576C391.965 61.3689 392.449 57.2801 392.746 53.1913C393.043 49.0282 393.229 44.8651 393.304 40.7019C394.344 40.1072 395.422 39.5496 396.537 39.0292C397.727 38.5089 398.954 38.2487 400.217 38.2487C400.589 38.2487 400.961 38.2858 401.332 38.3602C401.704 38.4345 402.076 38.546 402.448 38.6947C402.819 40.1815 403.414 41.371 404.232 42.2631C405.05 43.1552 405.793 44.2331 406.462 45.497C406.016 46.6864 405.719 47.9131 405.57 49.1769L405.235 52.9683C405.161 54.2321 405.012 55.4959 404.789 56.7597C404.566 57.9492 404.195 59.1014 403.674 60.2166C403.823 60.5883 403.897 60.96 403.897 61.3317V62.4468C403.897 63.4876 403.786 64.4912 403.563 65.4576C403.414 66.4241 403.228 67.4277 403.005 68.4685C402.782 69.4349 402.596 70.4014 402.448 71.3678C402.299 72.3342 402.299 73.3007 402.448 74.2671C402.225 74.6388 402.002 74.9362 401.779 75.1592C401.556 75.3079 401.407 75.5681 401.332 75.9398L401.109 78.0585C400.961 78.8763 400.812 79.694 400.663 80.5118C400.589 81.2552 400.478 82.0358 400.329 82.8536C399.808 85.0838 399.214 87.314 398.545 89.5443C397.95 91.7745 397.653 94.0791 397.653 96.4581V97.1271C396.984 98.1679 396.463 99.4689 396.091 101.03C395.72 102.517 395.608 103.892 395.757 105.156C394.939 107.312 394.159 109.431 393.415 111.512C392.672 113.594 392.3 115.75 392.3 117.98C392.3 118.352 392.3 118.761 392.3 119.207C392.374 119.578 392.449 119.95 392.523 120.322C391.928 121.809 391.557 123.333 391.408 124.894C391.259 126.381 391.185 127.867 391.185 129.354C391.185 130.395 391.222 131.622 391.296 133.034C391.445 134.372 391.631 135.785 391.854 137.272C392.151 138.684 392.486 140.059 392.858 141.397C393.229 142.736 393.638 143.814 394.084 144.631C395.794 147.382 398.024 149.538 400.775 151.099C403.6 152.735 406.574 153.775 409.696 154.221C410.96 153.775 411.963 153.515 412.707 153.441C413.524 153.366 414.64 153.366 416.052 153.441C417.242 152.846 418.431 152.4 419.62 152.103C420.884 151.805 422.148 151.471 423.412 151.099C423.784 150.95 424.155 150.802 424.527 150.653C424.973 150.504 425.345 150.356 425.642 150.207C426.014 150.058 426.423 149.724 426.869 149.203C427.315 148.683 427.724 148.237 428.095 147.865C429.657 147.419 431.143 146.787 432.556 145.969C433.968 145.226 435.344 144.445 436.682 143.628L440.808 141.174C442.22 140.357 443.707 139.65 445.268 139.056C445.863 138.833 446.198 138.535 446.272 138.164C446.421 137.718 446.644 137.197 446.941 136.602C447.09 136.751 447.313 136.825 447.61 136.825C448.502 136.825 449.134 136.565 449.506 136.045C449.877 135.45 450.324 134.855 450.844 134.261C451.81 134.112 452.74 133.852 453.632 133.48C454.524 133.034 455.193 132.365 455.639 131.473C457.497 131.101 459.133 130.432 460.545 129.466C461.958 128.499 463.333 127.458 464.671 126.343C466.01 125.154 467.348 124.039 468.686 122.998C470.024 121.883 471.548 120.991 473.258 120.322C473.481 119.95 473.63 119.615 473.704 119.318C473.778 119.021 473.89 118.686 474.038 118.314C475.302 118.166 476.306 117.831 477.049 117.311C477.793 116.716 478.648 116.121 479.614 115.527C481.696 115.75 483.182 116.679 484.075 118.314Z" fill="#FF55D5"/>
<path d="M370.667 81.85C370.667 82.8908 370.629 83.9315 370.555 84.9723C370.481 86.0131 370.369 87.0539 370.221 88.0947C369.7 88.8381 369.18 89.5072 368.659 90.1019C368.213 90.6223 367.916 91.2914 367.767 92.1091C366.95 92.7038 366.02 93.5216 364.979 94.5624C364.013 95.6032 363.604 96.6439 363.753 97.6847H362.192C361.3 99.0229 360.259 100.175 359.069 101.142C357.88 102.108 356.616 103.037 355.278 103.929L351.375 106.494C350.111 107.312 348.922 108.278 347.807 109.394C347.212 109.468 346.729 109.579 346.357 109.728C345.985 109.877 345.502 109.914 344.907 109.84C342.603 111.326 340.187 112.627 337.659 113.742C335.206 114.858 332.715 115.973 330.188 117.088C327.734 118.129 325.281 119.244 322.828 120.433C320.375 121.623 318.033 122.998 315.803 124.559C315.58 124.485 315.282 124.448 314.91 124.448C314.241 124.448 313.572 124.559 312.903 124.782C312.234 124.931 311.565 125.005 310.896 125.005C310.599 125.005 310.19 124.968 309.669 124.894C309.223 124.819 308.889 124.708 308.666 124.559C308.294 124.336 307.96 124.002 307.662 123.556C307.365 123.11 307.142 122.626 306.993 122.106C306.844 121.511 306.733 120.954 306.659 120.433C306.584 119.913 306.547 119.467 306.547 119.095C306.547 118.649 306.584 118.166 306.659 117.645C306.733 117.125 306.844 116.642 306.993 116.196C309.149 116.047 311.305 115.49 313.461 114.523C315.691 113.557 317.81 112.627 319.817 111.735C320.337 111.512 320.746 111.252 321.044 110.955C321.415 110.583 321.787 110.286 322.159 110.063C322.53 109.765 322.939 109.505 323.385 109.282C323.831 109.059 324.389 108.947 325.058 108.947H325.393C330.076 106.792 334.648 104.45 339.109 101.922C343.643 99.3946 348.141 96.8298 352.602 94.2278C352.825 93.5588 353.159 92.8897 353.605 92.2206C354.126 91.5515 354.609 90.9196 355.055 90.3249C355.501 89.6558 355.91 88.9868 356.282 88.3177C356.653 87.6486 356.839 86.9795 356.839 86.3105C356.839 84.9723 356.207 83.8572 354.943 82.9651H354.497C353.605 82.9651 352.825 82.8536 352.156 82.6306C351.486 82.3332 350.855 82.073 350.26 81.85C349.665 81.5526 348.996 81.3296 348.253 81.1809C347.509 80.9579 346.654 80.8835 345.688 80.9579C345.316 80.6605 344.721 80.4003 343.904 80.1773C343.086 79.9543 342.417 79.8428 341.896 79.8428C339.22 79.8428 336.581 80.0286 333.979 80.4003C331.377 80.6977 328.775 80.8835 326.173 80.9579C325.504 81.3296 324.872 81.6641 324.277 81.9615C323.683 82.2589 322.977 82.4075 322.159 82.4075C321.787 82.4075 321.453 82.4075 321.155 82.4075C320.858 82.3332 320.523 82.2589 320.152 82.1845C318.739 82.7792 317.141 83.2996 315.357 83.7457C313.572 84.1174 311.788 84.6006 310.004 85.1953C308.294 85.7157 306.696 86.3848 305.209 87.2026C303.722 88.0203 302.57 89.1354 301.752 90.5479C301.752 90.9196 301.826 91.2542 301.975 91.5515C302.124 91.7746 302.198 92.0719 302.198 92.4436V92.8897C301.752 93.3357 301.455 93.8561 301.306 94.4509C301.157 94.9713 301.046 95.5288 300.971 96.1235C300.897 96.6439 300.786 97.2015 300.637 97.7962C300.563 98.3166 300.302 98.837 299.856 99.3574C300.154 100.473 300.302 101.699 300.302 103.037C300.302 104.524 300.191 106.011 299.968 107.498C299.819 108.985 299.745 110.471 299.745 111.958C299.745 113.371 299.893 114.635 300.191 115.75C299.745 116.196 299.559 116.865 299.633 117.757C299.708 118.649 299.522 119.318 299.076 119.764C299.076 120.359 299.224 120.768 299.522 120.991C299.893 121.214 300.117 121.586 300.191 122.106C299.893 123.37 299.745 124.745 299.745 126.232C299.745 128.388 299.968 130.581 300.414 132.811C300.934 135.041 301.529 137.234 302.198 139.39C303.388 139.019 304.651 138.721 305.989 138.498C307.402 138.201 308.74 138.052 310.004 138.052C310.227 138.052 310.45 138.089 310.673 138.164C310.896 138.164 311.119 138.164 311.342 138.164C311.491 138.981 311.788 139.725 312.234 140.394C312.68 141.063 313.089 141.806 313.461 142.624C313.089 143.145 312.755 143.553 312.457 143.851C312.234 144.222 312.123 144.706 312.123 145.3C311.082 145.375 310.227 145.635 309.558 146.081C308.889 146.601 308.145 147.159 307.328 147.754H306.882C305.618 147.754 304.577 147.977 303.759 148.423C302.941 148.943 302.012 149.501 300.971 150.095C300.079 149.724 299.187 149.538 298.295 149.538C297.329 149.538 296.362 149.724 295.396 150.095C294.206 149.575 293.24 148.757 292.497 147.642C291.753 146.601 291.121 145.412 290.601 144.074C290.08 142.81 289.597 141.509 289.151 140.171C288.779 138.833 288.333 137.606 287.813 136.491V134.707C287.813 132.997 287.664 131.361 287.367 129.8C287.144 128.165 287.032 126.492 287.032 124.782C287.032 124.113 287.07 123.407 287.144 122.663C287.293 121.92 287.516 121.214 287.813 120.545C287.664 119.876 287.59 119.244 287.59 118.649V116.53C287.59 114.3 287.664 112.07 287.813 109.84C288.036 107.609 288.148 105.379 288.148 103.149C288.148 101.513 288.036 99.8406 287.813 98.1308C287.441 98.2795 287.107 98.4281 286.809 98.5768C286.512 98.7255 286.177 98.7998 285.806 98.7998C285.434 98.7998 285.062 98.7627 284.691 98.6883C284.393 98.614 284.096 98.5396 283.799 98.4653C283.055 97.7962 282.535 96.9785 282.237 96.012C281.94 95.0456 281.531 94.1535 281.011 93.3357C281.011 91.9233 281.234 90.771 281.68 89.8789C282.052 88.9124 282.535 88.0575 283.129 87.3141C283.724 86.4963 284.319 85.7157 284.914 84.9723C285.583 84.2289 286.14 83.2996 286.586 82.1845H287.032C288.222 82.1845 289.411 81.8128 290.601 81.0694C291.79 80.2516 293.128 79.8428 294.615 79.8428C295.136 79.1737 295.842 78.6161 296.734 78.1701C297.626 77.6497 298.555 77.2408 299.522 76.9434C300.563 76.6461 301.566 76.4602 302.533 76.3859C303.573 76.2372 304.54 76.1629 305.432 76.1629C305.729 75.6425 306.175 75.3079 306.77 75.1592C307.365 74.9362 307.96 74.7504 308.554 74.6017C309.223 74.3787 309.818 74.1928 310.338 74.0441C310.933 73.8211 311.416 73.4494 311.788 72.929C312.383 73.0777 312.94 73.152 313.461 73.152C314.427 73.152 315.357 73.0405 316.249 72.8175C317.141 72.5201 318.033 72.2228 318.925 71.9254C319.817 71.5537 320.709 71.2191 321.601 70.9218C322.568 70.6244 323.571 70.4757 324.612 70.4757C324.984 70.4757 325.355 70.5129 325.727 70.5872C326.099 70.5872 326.471 70.5872 326.842 70.5872C327.437 70.5872 327.772 70.3642 327.846 69.9182C327.995 69.4721 328.255 69.1376 328.626 68.9146C328.85 68.9889 329.258 69.0261 329.853 69.0261C331.34 69.0261 332.79 68.9146 334.202 68.6915C335.615 68.3942 337.064 68.2455 338.551 68.2455C339.22 68.2455 339.889 68.2827 340.558 68.357C341.227 68.4313 341.896 68.6172 342.566 68.9146C342.714 68.6915 342.863 68.5057 343.012 68.357C343.16 68.2083 343.272 68.0225 343.346 67.7994C346.989 68.0225 350.409 68.7659 353.605 70.0297C356.876 71.2935 360.259 72.4086 363.753 73.3751C364.199 74.0441 364.719 74.6389 365.314 75.1592L367.21 76.7204C367.879 77.2408 368.511 77.7612 369.105 78.2816C369.7 78.802 370.221 79.4339 370.667 80.1773V81.85Z" fill="black"/>
<path d="M282.126 65.2346C282.126 65.9037 281.977 66.5356 281.68 67.1303L280.899 68.803C280.676 69.3234 280.453 69.881 280.23 70.4757C280.007 71.0704 279.933 71.7767 280.007 72.5944C278.967 73.7839 277.926 74.9362 276.885 76.0513C275.844 77.1664 274.915 78.4302 274.097 79.8427C273.279 79.7684 272.647 79.9542 272.201 80.4003C271.83 80.8463 271.532 81.4411 271.309 82.1845C269.748 82.7049 268.373 83.5226 267.183 84.6378C265.994 85.6785 264.953 86.8308 264.061 88.0946C260.121 89.7301 256.441 91.7374 253.021 94.1163C249.602 96.4952 246.479 99.283 243.654 102.48C244.992 102.48 246.293 102.628 247.557 102.926C248.895 103.223 250.196 103.558 251.46 103.929C252.798 104.227 254.099 104.524 255.363 104.821C256.627 105.044 257.928 105.082 259.266 104.933C260.232 105.825 261.31 106.568 262.5 107.163C263.764 107.758 264.99 108.316 266.18 108.836C267.444 109.356 268.633 109.951 269.748 110.62C270.938 111.289 271.978 112.107 272.871 113.073C272.871 113.222 272.833 113.371 272.759 113.519C272.759 113.594 272.759 113.705 272.759 113.854C272.759 114.449 272.908 115.043 273.205 115.638C273.502 116.159 273.651 116.716 273.651 117.311C273.279 117.906 272.945 118.537 272.647 119.207C272.35 119.876 271.978 120.47 271.532 120.991C271.161 121.511 270.715 121.957 270.194 122.329C269.674 122.701 268.968 122.924 268.075 122.998C267.704 124.262 267.109 125.265 266.291 126.009C265.474 126.678 264.544 127.31 263.503 127.905C262.537 128.425 261.571 128.982 260.604 129.577C259.638 130.098 258.82 130.804 258.151 131.696C255.921 132.216 253.728 132.96 251.572 133.926C249.49 134.818 247.632 136.119 245.996 137.829C244.881 137.978 243.729 138.164 242.539 138.387C241.424 138.535 240.309 138.61 239.194 138.61C237.633 138.61 236.369 138.312 235.402 137.718C234.436 137.049 233.878 135.859 233.73 134.149C233.953 133.629 234.287 133.183 234.733 132.811L236.183 131.696C236.703 131.324 237.149 130.953 237.521 130.581C237.967 130.135 238.302 129.614 238.525 129.02C238.673 129.02 238.859 129.057 239.082 129.131C239.305 129.131 239.528 129.131 239.751 129.131C240.643 129.131 241.35 128.945 241.87 128.574C242.39 128.202 242.874 127.83 243.32 127.458C243.84 127.087 244.398 126.752 244.992 126.455C245.587 126.157 246.368 126.046 247.334 126.12C247.855 125.154 248.635 124.448 249.676 124.002C250.717 123.481 251.795 123.035 252.91 122.663C254.025 122.217 255.066 121.734 256.032 121.214C257.073 120.619 257.779 119.764 258.151 118.649C257.779 118.054 257.296 117.608 256.701 117.311C256.106 116.939 255.437 116.642 254.694 116.419L252.575 115.75C251.906 115.527 251.311 115.266 250.791 114.969C249.973 115.192 249.193 115.304 248.449 115.304C246.888 115.304 245.364 115.155 243.877 114.858C242.39 114.56 240.866 114.412 239.305 114.412C237.893 114.412 236.666 114.597 235.625 114.969C235.254 114.895 234.845 114.783 234.399 114.635C234.027 114.486 233.655 114.337 233.284 114.188C231.574 114.858 229.79 115.192 227.931 115.192H220.683C220.088 115.192 219.493 115.266 218.899 115.415C218.081 116.902 217.672 118.5 217.672 120.21C217.672 121.474 217.858 122.701 218.23 123.89C218.601 125.005 218.973 126.195 219.345 127.458C220.831 128.797 222.207 130.395 223.471 132.253C224.734 134.038 225.366 136.008 225.366 138.164C225.366 138.684 225.329 139.093 225.255 139.39C224.511 138.87 223.545 138.61 222.355 138.61C221.315 138.61 220.311 138.758 219.345 139.056C218.453 139.353 217.486 139.576 216.445 139.725C215.628 139.353 214.773 138.981 213.881 138.61C212.988 138.164 212.134 137.643 211.316 137.049C210.721 135.785 210.126 134.595 209.532 133.48C208.937 132.291 208.193 131.176 207.301 130.135V129.689C207.301 127.087 207.078 124.522 206.632 121.994C206.261 119.467 206.075 116.902 206.075 114.3C206.075 113.111 206.112 111.921 206.186 110.732C206.335 109.468 206.707 108.316 207.301 107.275C207.078 105.491 206.967 103.632 206.967 101.699C206.967 97.8334 207.19 93.9676 207.636 90.1019C208.082 86.2361 208.305 82.296 208.305 78.2816C208.305 77.4638 208.268 76.646 208.193 75.8283C208.193 75.0105 208.156 74.1928 208.082 73.375H207.636C206.669 73.375 205.74 73.5237 204.848 73.8211C203.956 74.0441 203.064 74.3043 202.172 74.6016C201.28 74.899 200.35 75.1964 199.384 75.4937C198.417 75.7168 197.451 75.8283 196.485 75.8283C195.89 76.1256 195.407 76.423 195.035 76.7204C194.663 77.0177 194.292 77.2779 193.92 77.501C193.548 77.724 193.139 77.9098 192.693 78.0585C192.173 78.2072 191.578 78.2444 190.909 78.17C190.091 78.6904 189.459 79.0993 189.013 79.3967C188.493 79.6197 187.787 79.8799 186.895 80.1773C186.449 80.3259 186.077 80.549 185.779 80.8463L184.887 81.6269C184.59 81.8499 184.255 82.073 183.884 82.296C183.512 82.519 183.029 82.6305 182.434 82.6305C181.914 82.6305 181.542 82.5934 181.319 82.519C180.873 82.1473 180.501 81.7013 180.204 81.1809C179.832 80.6605 179.498 80.1773 179.2 79.7312C178.829 79.2108 178.457 78.7648 178.085 78.3931C177.639 77.947 177.119 77.6125 176.524 77.3895C176.821 77.0177 176.97 76.7204 176.97 76.4974C176.896 76.2 176.858 75.8655 176.858 75.4937C176.858 75.2707 176.896 75.122 176.97 75.0477C177.342 73.7095 178.011 72.6688 178.977 71.9254C179.944 71.1076 181.022 70.4757 182.211 70.0296C183.401 69.5093 184.627 69.0632 185.891 68.6915C187.08 68.3198 188.196 67.8737 189.236 67.3534C192.136 67.4277 194.775 67.1675 197.154 66.5728C199.533 65.9037 201.986 64.9744 204.513 63.785C204.96 64.008 205.406 64.1195 205.852 64.1195C206.223 64.1195 206.595 64.0823 206.967 64.008L208.082 63.785C208.974 63.0415 209.94 62.5583 210.981 62.3353C212.022 62.1123 213.063 61.9264 214.104 61.7777C215.144 61.6291 216.148 61.4804 217.114 61.3317C218.081 61.1087 218.936 60.6998 219.679 60.1051H220.125C221.909 60.1051 223.694 59.8077 225.478 59.213C227.336 58.6182 229.121 58.3952 230.83 58.5439C232.317 57.7261 233.693 57.2057 234.956 56.9827C236.22 56.7597 237.67 56.6482 239.305 56.6482C239.677 56.6482 240.123 56.4995 240.643 56.2021C241.164 55.8304 241.796 55.6446 242.539 55.6446C242.688 55.6446 242.799 55.6817 242.874 55.7561C243.022 55.7561 243.171 55.7561 243.32 55.7561C243.989 55.7561 244.435 55.5331 244.658 55.087C244.955 54.641 245.662 54.4179 246.777 54.4179C247.297 54.4179 247.78 54.4551 248.226 54.5294C248.672 54.5294 249.118 54.5294 249.564 54.5294C250.085 54.5294 250.419 54.3436 250.568 53.9719C250.717 53.5258 251.051 53.34 251.572 53.4143C251.795 53.7117 252.166 53.8604 252.687 53.8604C253.207 53.786 253.616 53.7489 253.913 53.7489C254.434 53.7489 254.731 53.8975 254.806 54.1949C255.995 53.4515 257.296 52.9683 258.708 52.7452C260.195 52.5222 261.608 52.4107 262.946 52.4107C263.466 52.4107 263.987 52.4479 264.507 52.5222C265.027 52.5222 265.585 52.5594 266.18 52.6337C266.849 52.1877 267.629 51.9647 268.522 51.9647C269.042 51.9647 269.86 52.1877 270.975 52.6337C272.164 53.0798 273.391 53.6002 274.655 54.1949C275.919 54.7896 277.071 55.4215 278.112 56.0906C279.152 56.7597 279.784 57.3172 280.007 57.7633C280.156 57.912 280.23 58.2465 280.23 58.7669C280.305 59.2873 280.416 59.7333 280.565 60.1051C280.937 60.9972 281.271 61.8521 281.568 62.6698C281.94 63.4133 282.126 64.2682 282.126 65.2346ZM269.748 66.4613C269.748 66.3126 269.711 66.1639 269.637 66.0152C269.637 65.7922 269.637 65.6063 269.637 65.4576C269.265 65.0116 268.745 64.6771 268.075 64.454C267.481 64.231 266.812 64.0452 266.068 63.8965C265.399 63.7478 264.693 63.6363 263.95 63.5619C263.28 63.4133 262.686 63.2274 262.165 63.0044C260.604 63.5248 258.894 63.785 257.036 63.785C255.326 63.785 253.802 63.5248 252.464 63.0044C251.795 63.6734 250.94 64.1938 249.899 64.5655C248.858 64.9373 247.743 65.2346 246.554 65.4576C245.438 65.6063 244.286 65.7178 243.097 65.7922C241.982 65.7922 240.978 65.7922 240.086 65.7922C239.789 65.7922 239.268 66.0152 238.525 66.4613C237.781 66.9073 237.112 67.1303 236.518 67.1303C236.071 67.1303 235.663 66.9445 235.291 66.5728C234.622 67.0932 233.693 67.5392 232.503 67.9109C231.314 68.2826 230.087 68.6172 228.823 68.9145C227.559 69.1375 226.258 69.3977 224.92 69.6951C223.656 69.9925 222.578 70.2898 221.686 70.5872C220.794 72.5201 220.311 74.6388 220.237 76.9434C220.162 79.1736 220.125 81.3667 220.125 83.5226C220.125 84.7864 220.051 86.0131 219.902 87.2025C219.754 88.392 219.679 89.6186 219.679 90.8824C219.679 91.4772 219.716 92.1091 219.791 92.7781C219.865 93.3729 220.088 93.9676 220.46 94.5623C219.865 95.0084 219.456 95.6031 219.233 96.3465C219.084 97.0156 219.01 97.6847 219.01 98.3538C219.01 99.1715 219.084 99.9149 219.233 100.584C219.382 101.253 219.53 101.885 219.679 102.48C222.058 102.257 224.214 101.811 226.147 101.142C228.154 100.472 230.013 99.6547 231.722 98.6883C233.507 97.7219 235.217 96.6067 236.852 95.3429C238.488 94.0791 240.197 92.741 241.982 91.3285C242.725 91.1798 243.32 90.9568 243.766 90.6594C244.286 90.362 244.918 90.2134 245.662 90.2134C245.959 89.1726 246.516 88.4663 247.334 88.0946C248.152 87.6486 248.784 87.0167 249.23 86.1989C250.122 85.9759 250.865 85.6785 251.46 85.3068C252.129 84.8608 252.761 84.4519 253.356 84.0802C253.951 83.6341 254.582 83.2253 255.252 82.8536C255.995 82.4818 256.813 82.2588 257.705 82.1845C258.969 80.6977 260.27 79.2108 261.608 77.724C263.02 76.2372 264.656 75.0477 266.514 74.1556C266.812 73.4122 267.146 72.7803 267.518 72.2599C267.89 71.6652 268.224 71.1076 268.522 70.5872C268.893 69.9925 269.191 69.3977 269.414 68.803C269.637 68.1339 269.748 67.3534 269.748 66.4613Z" fill="black"/>
<path d="M203.844 72.929V73.375C203.324 73.5237 203.064 73.8954 203.064 74.4901C202.246 74.8618 201.391 75.1592 200.499 75.3822C199.607 75.5309 198.752 75.7911 197.934 76.1628C197.117 76.0885 196.262 76.0513 195.369 76.0513C194.552 75.977 193.734 75.9398 192.916 75.9398C190.686 75.9398 188.456 76.0141 186.225 76.1628C183.995 76.3115 181.765 76.3115 179.535 76.1628C178.494 76.7576 177.342 77.2408 176.078 77.6125C174.888 77.9099 173.736 78.0585 172.621 78.0585C171.729 78.0585 170.948 77.947 170.279 77.724C168.495 78.6161 166.525 79.3595 164.369 79.9542C162.288 80.549 160.169 81.1437 158.013 81.7384C155.857 82.2588 153.775 82.8907 151.768 83.6341C149.835 84.3032 148.125 85.2697 146.639 86.5335C146.49 87.5742 146.378 88.615 146.304 89.6558C146.23 90.6222 146.193 91.5887 146.193 92.5551C146.193 93.5959 146.23 94.5623 146.304 95.4544C146.453 96.3465 146.713 97.2386 147.085 98.1307C147.456 98.2794 147.865 98.3909 148.311 98.4653C148.832 98.5396 149.278 98.5768 149.649 98.5768C150.021 98.5768 150.393 98.5396 150.765 98.4653C151.136 98.3166 151.396 98.0564 151.545 97.6847C152.66 97.536 153.775 97.4988 154.891 97.5732C156.006 97.5732 157.121 97.5732 158.236 97.5732C159.351 97.5732 160.429 97.536 161.47 97.4617C162.585 97.3873 163.663 97.2015 164.704 96.9041C165.893 96.6067 167.045 96.4209 168.16 96.3465C169.35 96.2722 170.502 96.1979 171.617 96.1235C172.733 96.0492 173.885 95.9377 175.074 95.789C176.264 95.566 177.49 95.1571 178.754 94.5623C179.721 94.9341 180.687 95.1199 181.653 95.1199C182.694 95.1199 183.698 95.1942 184.664 95.3429C185.185 95.7146 185.594 96.1235 185.891 96.5696C186.263 97.0156 186.449 97.536 186.449 98.1307C186.449 99.1715 186.077 100.212 185.333 101.253C184.59 102.294 183.995 103.26 183.549 104.152H182.323C180.538 104.152 178.791 104.413 177.081 104.933C175.446 105.379 173.773 105.937 172.063 106.606C170.428 107.2 168.755 107.758 167.045 108.278C165.41 108.724 163.7 108.947 161.916 108.947C161.618 108.947 161.433 109.133 161.358 109.505C161.358 109.802 161.284 110.025 161.135 110.174C160.764 110.1 160.206 110.063 159.463 110.063C157.753 110.063 156.117 110.248 154.556 110.62C152.995 110.992 151.396 111.178 149.761 111.178C149.315 111.178 148.869 111.178 148.423 111.178C147.977 111.103 147.531 111.029 147.085 110.955C146.713 111.549 146.23 111.958 145.635 112.181C145.04 112.33 144.483 112.627 143.962 113.073C143.739 113.742 143.591 114.56 143.516 115.527C143.516 116.493 143.479 117.497 143.405 118.537C143.405 119.504 143.33 120.433 143.182 121.325C143.033 122.217 142.736 122.924 142.29 123.444C142.364 123.816 142.661 123.964 143.182 123.89C143.702 123.741 143.962 123.964 143.962 124.559C143.962 125.228 143.888 125.934 143.739 126.678C143.591 127.421 143.516 128.165 143.516 128.908C143.516 130.321 143.665 131.882 143.962 133.592C144.334 135.227 144.854 136.751 145.524 138.164C146.267 139.576 147.233 140.766 148.423 141.732C149.612 142.624 151.099 143.07 152.883 143.07C154.073 143.07 155.188 142.847 156.229 142.401C157.269 141.955 158.124 141.212 158.793 140.171L159.351 140.059C159.648 140.059 159.909 140.097 160.132 140.171C160.429 140.245 160.726 140.282 161.024 140.282C161.47 140.282 162.027 140.022 162.696 139.502C163.44 138.907 164.22 138.238 165.038 137.495C165.93 136.751 166.822 136.045 167.714 135.376C168.607 134.632 169.461 134.112 170.279 133.815C170.8 132.774 171.283 131.733 171.729 130.692C172.249 129.652 172.993 128.834 173.959 128.239V125.005C174.703 124.187 175.483 123.444 176.301 122.775C177.193 122.106 177.862 121.251 178.308 120.21C178.68 120.359 179.014 120.47 179.312 120.545C179.683 120.619 180.055 120.656 180.427 120.656C180.799 120.656 181.17 120.619 181.542 120.545C181.988 120.47 182.397 120.359 182.769 120.21C183.363 121.028 183.809 121.957 184.107 122.998C184.478 123.964 184.925 124.894 185.445 125.786C184.776 127.124 183.995 128.722 183.103 130.581C182.211 132.439 181.245 134.298 180.204 136.156C179.163 138.015 178.048 139.799 176.858 141.509C175.743 143.145 174.628 144.408 173.513 145.3C173.29 145.523 172.807 145.784 172.063 146.081C171.246 146.676 170.502 147.233 169.833 147.754C169.164 148.348 168.532 149.017 167.937 149.761C165.782 150.43 163.7 151.322 161.693 152.437C159.76 153.552 157.827 154.63 155.894 155.671C155.002 155.448 154.036 155.337 152.995 155.337C152.103 155.337 151.211 155.374 150.319 155.448C149.426 155.597 148.46 155.671 147.419 155.671C147.122 155.299 146.676 155.039 146.081 154.89C145.561 154.816 145.375 154.444 145.524 153.775C142.996 153.627 140.952 152.92 139.39 151.657C137.829 150.467 136.491 148.98 135.376 147.196C134.335 145.412 133.48 143.479 132.811 141.397C132.142 139.316 131.436 137.309 130.692 135.376V135.041C130.692 134.67 130.841 134.447 131.138 134.372C131.436 134.298 131.584 134.075 131.584 133.703C131.584 133.554 131.547 133.443 131.473 133.369C131.25 132.551 131.064 131.845 130.915 131.25C130.767 130.655 130.692 129.949 130.692 129.131C130.692 127.942 130.767 126.789 130.915 125.674C131.064 124.485 131.138 123.295 131.138 122.106C131.138 120.916 130.99 119.876 130.692 118.984C130.99 118.612 131.25 118.129 131.473 117.534C131.622 116.865 131.733 116.196 131.808 115.527C131.882 114.858 131.919 114.189 131.919 113.519C131.993 112.85 132.105 112.256 132.254 111.735C131.956 110.917 131.696 110.211 131.473 109.617C131.25 108.947 131.138 108.167 131.138 107.275V106.494C131.882 105.23 132.514 103.929 133.034 102.591C133.555 101.253 134.112 99.8778 134.707 98.4653V98.1307C134.707 95.9748 134.632 93.8189 134.484 91.663C134.335 89.5071 134.261 87.3512 134.261 85.1953V83.0766C134.261 82.3332 134.298 81.6269 134.372 80.9579C134.967 80.6605 135.413 80.2516 135.71 79.7312C136.008 79.2108 136.454 78.8019 137.049 78.5046H140.728L141.398 77.3895C141.621 77.0178 141.769 76.6089 141.844 76.1628C142.661 75.9398 143.442 75.6424 144.185 75.2707C145.003 74.8247 145.747 74.3786 146.416 73.9326C147.456 73.3378 148.386 72.8175 149.203 72.3714C150.096 71.851 150.95 71.4421 151.768 71.1448C152.66 70.7731 153.59 70.4757 154.556 70.2527C155.522 70.0297 156.638 69.8438 157.901 69.6951C158.496 69.6951 158.868 69.5836 159.016 69.3606C159.24 69.1376 159.537 68.8774 159.909 68.58C160.801 68.7287 161.693 68.8774 162.585 69.026C163.477 69.1004 164.369 69.1376 165.261 69.1376C167.045 69.1376 168.718 68.803 170.279 68.1339C172.509 68.1339 174.703 68.0968 176.858 68.0224C179.089 67.9481 181.319 67.9109 183.549 67.9109C185.482 67.9109 187.415 67.9853 189.348 68.1339C191.281 68.2826 193.176 68.5428 195.035 68.9145C195.704 68.6915 196.447 68.58 197.265 68.58C198.157 68.58 199.049 68.6915 199.941 68.9145C200.908 69.0632 201.837 69.0632 202.729 68.9145C202.804 69.7323 202.989 70.4385 203.287 71.0333C203.659 71.5537 203.844 72.1856 203.844 72.929Z" fill="black"/>
<path d="M127.235 46.7236C127.087 47.0953 126.789 47.7644 126.343 48.7308C125.897 49.6972 125.674 50.3292 125.674 50.6265C125.674 51.2213 125.637 52.0018 125.563 52.9683C125.563 53.8604 125.86 54.4179 126.455 54.641C125.637 56.3508 125.117 58.0978 124.894 59.882C124.745 61.5919 124.671 63.3761 124.671 65.2346C124.671 67.0188 124.634 68.8402 124.559 70.6987C124.485 72.4829 124.187 74.2299 123.667 75.9398C123.964 76.3858 124.039 76.9434 123.89 77.6125C123.816 78.2072 124.002 78.6904 124.448 79.0621C124.076 79.6569 123.853 80.2516 123.779 80.8463C123.704 81.3667 123.667 81.9243 123.667 82.519C123.667 83.7085 123.779 84.8608 124.002 85.9759C123.184 87.1654 122.775 88.5035 122.775 89.9903C122.849 91.4028 122.886 92.8525 122.886 94.3393C122.886 95.6031 122.701 96.8298 122.329 98.0192C122.032 99.2087 121.883 100.435 121.883 101.699C121.883 102.071 121.92 102.405 121.994 102.703C122.069 103 122.106 103.335 122.106 103.706C122.106 104.078 121.957 104.338 121.66 104.487C121.437 104.561 121.325 104.896 121.325 105.491C121.325 108.241 121.139 110.917 120.768 113.519C120.396 116.047 119.913 118.575 119.318 121.102C118.798 123.556 118.203 126.046 117.534 128.574C116.865 131.101 116.27 133.666 115.75 136.268C114.932 137.16 114.3 138.164 113.854 139.279C113.482 140.394 112.776 141.286 111.735 141.955C110.769 144.408 109.542 146.639 108.055 148.646C106.643 150.653 105.045 152.549 103.26 154.333C101.55 156.117 99.7663 157.827 97.9078 159.462C96.0492 161.172 94.2278 162.919 92.4437 164.704C91.7002 164.704 90.9568 164.704 90.2134 164.704C89.5443 164.778 88.8381 164.815 88.0947 164.815C86.4592 164.815 84.8236 164.741 83.1881 164.592C81.5526 164.443 79.9914 164.183 78.5046 163.811C78.2073 162.771 77.6125 162.064 76.7204 161.693C75.9027 161.395 75.1593 160.912 74.4902 160.243C73.7468 159.574 73.1892 158.831 72.8175 158.013C72.4458 157.195 71.6652 156.637 70.4757 156.34C70.104 155.225 69.5093 153.924 68.6915 152.437C67.9481 150.95 67.2047 149.426 66.4613 147.865C65.7179 146.304 65.0488 144.817 64.4541 143.405C63.9337 141.918 63.6735 140.654 63.6735 139.613C63.6735 139.242 63.7107 138.907 63.785 138.61C63.9337 138.238 64.0452 137.866 64.1195 137.495C63.6735 136.974 63.3761 136.305 63.2274 135.487C63.0788 134.67 62.9672 133.852 62.8929 133.034C62.8929 132.142 62.8186 131.324 62.6699 130.581C62.5212 129.763 62.1867 129.131 61.6663 128.685C60.7742 129.28 60.0679 130.023 59.5475 130.915C59.0271 131.807 58.5439 132.774 58.0979 133.815C57.7262 134.855 57.3545 135.896 56.9828 136.937C56.611 137.978 56.165 138.944 55.6446 139.836C54.6038 140.654 53.6746 141.583 52.8568 142.624C52.1134 143.665 51.3328 144.706 50.515 145.746C49.7716 146.862 48.9539 147.865 48.0618 148.757C47.1697 149.724 46.1289 150.504 44.9394 151.099C44.6421 152.437 44.0845 153.552 43.2668 154.444C42.5233 155.411 41.7056 156.266 40.8135 157.009C39.9214 157.827 39.0665 158.645 38.2487 159.462C37.4309 160.355 36.8362 161.433 36.4645 162.696C35.2007 163.291 33.7882 164.146 32.227 165.261C30.6659 166.451 29.0675 167.64 27.432 168.83C25.8708 170.019 24.2725 171.023 22.637 171.84C21.0758 172.732 19.7005 173.178 18.511 173.178C17.5446 173.178 16.6153 173.067 15.7232 172.844C14.9055 172.695 14.0505 172.509 13.1584 172.286C12.2663 172.063 11.3742 171.84 10.4822 171.617C9.59005 171.469 8.66078 171.431 7.69434 171.506C6.28186 170.019 5.2039 168.309 4.46049 166.376C3.71707 164.518 2.78781 162.771 1.67268 161.135C1.30098 158.905 0.929269 156.637 0.557561 154.333C0.185854 152.103 0 149.872 0 147.642C0 146.378 0.148683 145.189 0.446049 144.074C0.743415 143.033 0.892098 141.955 0.892098 140.84C0.892098 140.468 0.817756 140.134 0.669073 139.836C0.594732 139.465 0.52039 139.093 0.446049 138.721C0.966439 137.68 1.37532 136.602 1.67268 135.487C1.97005 134.298 2.19307 133.108 2.34176 131.919C2.56478 130.729 2.78781 129.577 3.01083 128.462C3.23386 127.273 3.56839 126.157 4.01444 125.117C4.16312 124.225 3.90293 123.556 3.23386 123.109C3.75425 122.589 4.08878 122.032 4.23747 121.437C4.38615 120.842 4.46049 120.247 4.46049 119.653C4.53483 119.058 4.572 118.426 4.572 117.757C4.572 117.088 4.64634 116.456 4.79503 115.861C4.86937 115.564 5.05522 115.118 5.35259 114.523L6.3562 112.627C6.72791 111.958 7.02527 111.364 7.2483 110.843C7.54566 110.248 7.69434 109.802 7.69434 109.505C7.69434 108.985 7.54566 108.427 7.2483 107.832C7.54566 106.345 8.02888 104.896 8.69796 103.483C9.44137 102.071 9.99893 100.621 10.3706 99.1343C10.7423 97.6475 10.9654 96.3465 11.0397 95.2314C11.1141 94.042 11.4486 92.6666 12.0433 91.1055C12.1177 90.9568 12.1548 90.7709 12.1548 90.5479C12.1548 90.2505 12.0433 90.0647 11.8203 89.9903C11.5973 89.916 11.4114 89.7673 11.2627 89.5443C12.1548 87.8344 12.8239 86.0131 13.27 84.0802C13.7903 82.073 14.1992 80.0286 14.4966 77.947C14.8683 75.8655 15.2028 73.8211 15.5002 71.8138C15.7976 69.7323 16.2436 67.7622 16.8383 65.9037C16.6153 64.4169 16.4295 62.8929 16.2808 61.3317C16.1321 59.6962 16.0578 58.135 16.0578 56.6482C16.0578 54.9383 16.2064 53.1913 16.5038 51.4071C16.8755 49.6229 17.6561 48.0617 18.8456 46.7236C19.4403 46.7236 20.0722 46.6864 20.7413 46.6121C21.4847 46.5377 22.1538 46.5006 22.7485 46.5006C23.6406 46.5006 24.607 46.7236 25.6478 47.1696C26.1682 49.5486 26.8373 51.8903 27.655 54.1949C28.4728 56.4995 28.8817 58.9528 28.8817 61.5547C28.8817 62.8185 28.733 64.0823 28.4356 65.3461L27.655 69.026C27.432 70.2155 27.2462 71.4421 27.0975 72.7059C26.9488 73.8954 26.986 75.0849 27.209 76.2743C26.3912 77.3895 25.908 78.6904 25.7593 80.1773C25.685 81.5898 25.6478 82.9279 25.6478 84.1917C24.9044 85.2325 24.3468 86.2733 23.9751 87.314C23.6034 88.3548 23.3061 89.4328 23.083 90.5479C22.9344 91.5887 22.7857 92.6666 22.637 93.7818C22.4883 94.8969 22.3024 96.012 22.0794 97.1271C21.9307 97.4988 21.6705 97.9449 21.2988 98.4653C21.0015 98.9857 20.8528 99.3574 20.8528 99.5804C20.8528 100.101 21.0015 100.621 21.2988 101.142C21.1502 101.365 21.0015 101.55 20.8528 101.699C20.7041 101.773 20.5926 101.959 20.5183 102.257C20.2952 103.074 20.1094 103.967 19.9607 104.933C19.8864 105.825 19.7377 106.68 19.5146 107.498C19.1429 109.356 18.6225 111.178 17.9535 112.962C17.3587 114.746 16.7268 116.53 16.0578 118.314C16.0578 119.801 15.9834 120.991 15.8347 121.883C15.7604 122.775 15.6117 123.593 15.3887 124.336C15.24 125.005 15.017 125.749 14.7196 126.566C14.4966 127.31 14.2736 128.276 14.0505 129.466C13.8275 130.581 13.6045 131.956 13.3815 133.592C13.2328 135.227 13.0469 136.937 12.8239 138.721C12.6752 140.431 12.5637 142.141 12.4894 143.851C12.415 145.486 12.3779 146.899 12.3779 148.088C12.3779 150.244 12.5637 152.326 12.9354 154.333C13.3815 156.414 14.1249 158.385 15.1657 160.243H17.0614C17.5074 160.243 17.9906 160.243 18.511 160.243C19.0314 160.317 19.5146 160.466 19.9607 160.689C20.4811 160.54 20.7413 160.317 20.7413 160.02V159.128C20.7413 158.905 20.9271 158.608 21.2988 158.236L22.0794 158.347C22.8228 158.347 23.4919 158.236 24.0866 158.013C24.7557 157.79 25.4248 157.492 26.0939 157.121C27.5064 155.188 29.1419 153.552 31.0004 152.214C32.9333 150.876 34.6431 149.315 36.13 147.531C36.5017 146.936 36.6132 146.23 36.4645 145.412C37.3566 145.263 38.0257 144.929 38.4717 144.408C38.9921 143.888 39.4753 143.33 39.9214 142.736C40.3674 142.141 40.8135 141.583 41.2595 141.063C41.7799 140.468 42.449 140.059 43.2668 139.836C43.6385 139.167 43.973 138.461 44.2704 137.718C44.5677 136.9 44.8651 136.119 45.1625 135.376C45.5342 134.632 45.943 133.963 46.3891 133.369C46.9095 132.7 47.5786 132.179 48.3963 131.807C49.6601 128.982 50.7381 126.083 51.6302 123.109C52.5223 120.061 53.8604 117.274 55.6446 114.746C55.6446 113.78 55.6818 112.888 55.7561 112.07C55.8305 111.252 55.7933 110.397 55.6446 109.505C57.5031 106.977 58.6926 104.338 59.213 101.588C59.7334 98.837 59.9936 95.9377 59.9936 92.8897C59.9936 90.3621 60.8113 88.615 62.4469 87.6486C64.1567 86.6821 66.1639 86.1989 68.4685 86.1989H69.5836C70.0297 86.1989 70.4386 86.2361 70.8103 86.3104C70.959 86.8308 71.2192 87.2397 71.5909 87.5371C72.0369 87.7601 72.483 88.0203 72.929 88.3177V88.9867C72.929 90.0275 72.7803 90.994 72.483 91.8861C72.2599 92.7038 72.1484 93.5959 72.1484 94.5623C72.1484 95.0084 72.2228 95.6031 72.3714 96.3465C73.1149 98.5024 73.6724 100.472 74.0441 102.257C74.4902 104.041 74.7132 106.122 74.7132 108.501C74.7132 110.509 74.6017 112.553 74.3787 114.635C74.23 116.642 74.007 118.649 73.7096 120.656C74.1556 121.474 74.3787 122.329 74.3787 123.221C74.3787 123.816 74.3043 124.448 74.1556 125.117C74.0813 125.711 74.0441 126.306 74.0441 126.901C74.0441 128.165 74.23 129.429 74.6017 130.692C75.0477 131.882 75.4938 133.071 75.9398 134.261C76.4602 135.45 76.9063 136.64 77.278 137.829C77.6497 139.019 77.7984 140.208 77.724 141.397C78.9878 142.959 80.103 144.557 81.0694 146.193C82.1102 147.902 83.374 149.389 84.8608 150.653C85.4555 150.802 85.9388 150.876 86.3105 150.876C86.7565 150.876 87.1282 150.802 87.4256 150.653C87.723 150.579 87.9832 150.467 88.2062 150.318C88.5036 150.244 88.8009 150.17 89.0983 150.095C89.3956 150.095 89.8417 150.133 90.4364 150.207C91.7746 149.241 93.0012 148.125 94.1163 146.862C95.2315 145.672 96.2722 144.445 97.2387 143.182C98.2795 141.918 99.3202 140.617 100.361 139.279C101.402 137.941 102.48 136.677 103.595 135.487C105.751 130.135 107.498 124.782 108.836 119.43C110.174 114.077 110.992 108.501 111.289 102.703C111.289 101.885 111.475 101.476 111.847 101.476C112.218 101.476 112.553 101.216 112.85 100.696V97.5732C112.85 95.1942 112.962 92.8153 113.185 90.4364C113.482 88.0575 114.04 85.7157 114.858 83.4111C114.635 82.519 114.523 81.6269 114.523 80.7348C114.523 78.8019 114.672 76.9434 114.969 75.1592C115.341 73.3007 115.527 71.4421 115.527 69.5836C115.527 68.6172 115.415 67.6507 115.192 66.6843C115.043 65.6435 114.672 64.7142 114.077 63.8965L113.966 63.2274C113.966 62.7814 114.114 62.4096 114.412 62.1123C114.783 61.8149 115.043 61.4804 115.192 61.1087C114.82 60.1422 114.672 59.1386 114.746 58.0978C114.895 57.0571 114.969 56.0163 114.969 54.9755C114.969 54.3808 114.895 53.7489 114.746 53.0798C114.597 52.4107 114.226 51.8903 113.631 51.5186C114.3 50.7752 114.783 49.8088 115.081 48.6193C115.378 47.4298 115.564 46.166 115.638 44.8279C115.787 43.4897 115.861 42.1888 115.861 40.925C115.861 39.5868 115.936 38.4717 116.084 37.5796C116.753 36.8362 117.497 36.2043 118.314 35.6839C119.207 35.0891 120.173 34.7918 121.214 34.7918C122.552 34.7918 123.518 35.275 124.113 36.2414C124.708 37.1335 125.154 38.2487 125.451 39.5868C125.749 40.8506 125.972 42.1516 126.12 43.4897C126.343 44.8279 126.715 45.9058 127.235 46.7236Z" fill="black"/>
</svg>
